<svg id="ussg-favicon" viewBox="0 0 120 120" xmlns="http://www.w3.org/2000/svg" xmlns:svg="http://www.w3.org/2000/svg">
    <g id="solarsystem" transform="scale(0.26458333)">
        <circle style="fill:#0e3759;stroke-width:1.42848289;stroke:#000000;stroke-opacity:1" cx="225" cy="225" r="225" />
        <circle style="fill:#185e98;stroke-width:1.42848289;stroke:#000000;stroke-opacity:1" cx="225" cy="225" r="165" />
        <circle style="mix-blend-mode:multiply;fill:#77aad4;stroke-width:1.42848289;stroke:#000000;stroke-opacity:1" cx="225" cy="225" r="105" />
        <circle class="moon" style="fill:#77aad4" cx="93.727646" cy="23.281439" r="7.5" />
    </g>
    <g id="planets">
        <path class="sunrays1" style="fill:#fb7a5b" d="m 225,167.5 c -4.142,0 -7.5,3.358 -7.5,7.5 v 22.01 l -11.005,-19.061 c -2.071,-3.588 -6.658,-4.816 -10.245,-2.745 -3.587,2.071 -4.816,6.658 -2.745,10.245 l 11.005,19.061 -19.061,-11.005 c -3.587,-2.072 -8.174,-0.843 -10.245,2.745 -2.071,3.587 -0.842,8.174 2.745,10.245 L 197.01,217.5 H 175 c -4.142,0 -7.5,3.358 -7.5,7.5 0,4.142 3.358,7.5 7.5,7.5 h 22.01 l -19.061,11.005 c -3.587,2.071 -4.816,6.658 -2.745,10.245 1.389,2.406 3.91,3.751 6.502,3.751 1.272,0 2.562,-0.324 3.743,-1.006 l 19.061,-11.005 -11.005,19.061 c -2.071,3.587 -0.842,8.174 2.745,10.245 1.181,0.682 2.471,1.006 3.743,1.006 2.592,0 5.113,-1.345 6.502,-3.751 l 25,-43.301 1.005,-3.75 v -50 c 0,-4.142 -3.358,-7.5 -7.5,-7.5 z" transform="scale(0.26458333)" />
        <path class="sunrays2" style="fill:#f7fb5b" d="m 282.5,225 c 0,-4.142 -3.358,-7.5 -7.5,-7.5 h -22.01 l 19.061,-11.005 c 3.587,-2.071 4.816,-6.658 2.745,-10.245 -2.071,-3.588 -6.658,-4.816 -10.245,-2.745 l -19.061,11.005 11.005,-19.061 c 2.071,-3.587 0.842,-8.174 -2.745,-10.245 -3.587,-2.072 -8.174,-0.842 -10.245,2.745 l -25,43.301 -1.005,3.75 v 50 c 0,4.142 3.358,7.5 7.5,7.5 4.142,0 7.5,-3.358 7.5,-7.5 v -22.01 l 11.005,19.061 c 1.389,2.406 3.91,3.751 6.502,3.751 1.272,0 2.562,-0.324 3.743,-1.006 3.587,-2.071 4.816,-6.658 2.745,-10.245 l -11.005,-19.061 19.061,11.005 c 1.181,0.682 2.471,1.006 3.743,1.006 2.592,0 5.113,-1.345 6.502,-3.751 2.071,-3.587 0.842,-8.174 -2.745,-10.245 L 252.99,232.5 H 275 c 4.142,0 7.5,-3.358 7.5,-7.5 z" transform="scale(0.26458333)" />
        <path class="sun1" style="fill:#fa9647" d="m 225,185 v 80 c 22.091,0 40,-17.909 40,-40 0,-22.091 -17.909,-40 -40,-40 z" transform="scale(0.26458333)" />
        <path class="sun2" style="fill:#f7fb5b" d="m 235,225 c 0,-22.091 -4.477,-40 -10,-40 -22.091,0 -40,17.909 -40,40 0,22.091 17.909,40 40,40 5.523,0 10,-17.909 10,-40 z" transform="scale(0.26458333)" />
        <path class="earth1" style="fill:#2927ff" d="m 65.194,35.194 -10,30 10,30 c 16.569,0 30,-13.432 30,-30 0,-16.568 -13.432,-30 -30,-30 z" transform="scale(0.26458333)" />
        <path class="earth2" style="fill:#43fe87" d="m 35.194,65.194 c 0,16.568 13.431,30 30,30 v -60 c -16.569,0 -30,13.431 -30,30 z" transform="scale(0.26458333)" />
        <path class="venus1" style="fill:#f3031a" d="m 47.157328,11.206895 -2.645833,6.614583 2.645833,6.614584 c 3.653102,0 6.614583,-2.961482 6.614583,-6.614584 0,-3.653102 -2.961481,-6.614583 -6.614583,-6.614583 z" />
        <path class="venus2" style="fill:#f7fb5b" d="m 40.542745,17.821478 c 0,3.653102 2.961481,6.614584 6.614583,6.614584 V 11.206895 c -3.653102,0 -6.614583,2.961481 -6.614583,6.614583 z" />
        <path class="mercury1" style="fill:#fe4382" d="m 225,305 -10,25 10,25 c 13.807,0 25,-11.193 25,-25 0,-13.807 -11.193,-25 -25,-25 z" transform="scale(0.26458333)" />
        <path class="mercury2" style="fill:#fd5f6e" d="m 200,330 c 0,13.807 11.193,25 25,25 v -50 c -13.807,0 -25,11.193 -25,25 z" transform="scale(0.26458333)" />
    </g>
    <g id="logotext">
        <g class="us" transform="translate(141.71626,-37.356196)">
            <path class="s" style="fill:#fff" d="m -48.075463,74.848561 c 0.8382,0 1.6002,0.2286 2.2479,0.6858 0.6096,0.4572 1.143,1.0287 1.6002,1.7145 h -33.2613 c -0.3048,-0.9144 -0.4572,-1.8669 -0.4572,-2.8956 v -3.2766 c 0,-0.762 0.1905,-1.5621 0.5715,-2.3622 0.381,-0.762 0.9144,-1.4859 1.5621,-2.1336 0.6096,-0.6477 1.3335,-1.1811 2.1336,-1.6002 0.8001,-0.381 1.6002,-0.6096 2.4384,-0.6096 h 28.1559 v 6.2103 h -25.3365 c -0.5334,0 -0.9525,0.1905 -1.2954,0.5334 -0.381,0.381 -0.5334,0.8763 -0.5334,1.524 v 0.1524 c 0,0.6858 0.1524,1.1811 0.5334,1.524 0.3429,0.381 0.762,0.5334 1.2954,0.5334 z m 3.9624,2.5908 c 0.3048,0.571499 0.5334,1.181099 0.6858,1.790699 h -32.9946 c -0.2286,-0.2667 -0.4191,-0.5334 -0.5715,-0.8382 -0.1524,-0.3048 -0.3048,-0.6096 -0.4191,-0.952499 z m 0.8001,2.133599 c 0.0762,0.5715 0.1524,1.143 0.2286,1.6764 h -8.6868 c -0.3048,-0.1143 -0.5715,-0.1905 -0.8001,-0.1905 h -20.3835 c -0.6858,0 -1.2573,-0.1143 -1.7907,-0.381 -0.5334,-0.2667 -1.0287,-0.6477 -1.4097,-1.1049 z m 0.0381,6.5151 c -0.0762,0.381 -0.2286,0.7239 -0.4191,1.1049 h -34.2519 v -1.1049 z m -1.0668,2.1717 c -0.1524,0.1905 -0.2667,0.3429 -0.381,0.4953 -0.1143,0.1524 -0.2286,0.3048 -0.381,0.4572 h -32.8422 v -0.9525 z m -2.1336,2.1336 c -0.5334,0.381 -1.0287,0.6477 -1.524,0.8001 h -29.9466 v -0.8001 z m -4.3053,-7.2771 c 0,-0.5334 -0.1524,-0.9906 -0.4191,-1.3716 h 8.1153 v 1.4859 h -7.6962 z m -1.1811,2.0955 c 0.5715,-0.1905 0.9525,-0.6096 1.1049,-1.2954 h 7.7724 v 0.9144 c 0,0.1905 -0.0381,0.3048 -0.0381,0.381 z" />
            <path class="u" style="fill:#fff" d="m -112.0416,64.473076 v 12.8778 h -7.6962 v -12.8778 z m 28.841692,0 v 12.8778 h -7.696196 v -12.8778 z M -119.1663,87.294975 c -0.1905,-0.381 -0.3429,-0.762 -0.4191,-1.1049 h 36.194992 c -0.0762,0.381 -0.2286,0.7239 -0.4191,1.1049 z m 1.4097,2.0193 -0.381,-0.4572 c -0.1524,-0.1524 -0.2667,-0.3048 -0.381,-0.4953 h 34.061392 c -0.1524,0.1905 -0.2667,0.3429 -0.381,0.4953 -0.1143,0.1524 -0.2286,0.3048 -0.381,0.4572 z m 2.9337,1.9812 c -0.5715,-0.1905 -1.1049,-0.4572 -1.5621,-0.8001 h 29.794192 c -0.5334,0.381 -1.0287,0.6477 -1.523996,0.8001 z m 23.926796,-11.9634 v -1.790699 h 7.696196 v 1.790699 z m -28.841696,0 v -1.790699 h 7.6962 v 1.790699 z m 28.841696,2.0193 v -1.6764 h 7.696196 v 1.6764 z m -28.841696,0 v -1.6764 h 7.6962 v 1.6764 z m 28.841696,1.9812 v -1.4859 h 7.696196 v 1.4859 z m -28.841696,0 v -1.4859 h 7.6962 v 1.4859 z m 27.660596,1.9812 c 0.5715,-0.1905 0.9525,-0.6096 1.1049,-1.2954 h 7.772396 v 0.9144 c 0,0.1905 -0.0381,0.3048 -0.0381,0.381 z m -19.888196,-1.2954 c 0.1524,0.6858 0.4953,1.1049 1.0668,1.2954 h -8.8392 v -0.381 -0.9144 z" />
        </g>
        <g class="sg" transform="translate(23.927315,23.327221)">
            <path class="s" d="m 28.159371,49.999481 c 0.8382,0 1.6002,0.2286 2.2479,0.6858 0.6096,0.4572 1.143,1.0287 1.6002,1.7145 H -1.253828 c -0.3048,-0.9144 -0.4572,-1.8669 -0.4572,-2.8956 v -3.2766 c 0,-0.762 0.1905,-1.5621 0.5715,-2.3622 0.38100008,-0.762 0.91440008,-1.4859 1.56210008,-2.1336 0.60960002,-0.6477 1.33349992,-1.1811 2.13359992,-1.6002 0.8000999,-0.381 1.6001999,-0.6096 2.4383999,-0.6096 H 33.150471 v 6.2103 H 7.8139716 c -0.5333999,0 -0.9524999,0.1905 -1.2953999,0.5334 -0.381,0.381 -0.5333998,0.8763 -0.5333998,1.524 v 0.1524 c 0,0.6858 0.1523998,1.1811 0.5333998,1.524 0.3429,0.381 0.762,0.5334 1.2953999,0.5334 z m 3.9624,2.5908 c 0.3048,0.5715 0.5334,1.1811 0.6858,1.7907 H -0.18702792 c -0.2286,-0.2667 -0.4191,-0.5334 -0.5715,-0.8382 -0.1524,-0.3048 -0.30480008,-0.6096 -0.41910008,-0.9525 z m 0.8001,2.1336 c 0.0762,0.5715 0.1524,1.143 0.2286,1.6764 h -8.6868 c -0.3048,-0.1143 -0.5715,-0.1905 -0.8001,-0.1905 H 3.2800719 c -0.6857999,0 -1.2572999,-0.1143 -1.7906999,-0.381 -0.53339992,-0.2667 -1.02869992,-0.6477 -1.40969992,-1.1049 z m 0.0381,6.5151 c -0.0762,0.381 -0.2286,0.7239 -0.4191,1.1049 H -1.711028 v -1.1049 z m -1.0668,2.1717 c -0.1524,0.1905 -0.2667,0.3429 -0.381,0.4953 -0.1143,0.1524 -0.2286,0.3048 -0.381,0.4572 H -1.711028 v -0.9525 z m -2.1336,2.1336 c -0.5334,0.381 -1.0287,0.6477 -1.524,0.8001 H -1.711028 v -0.8001 z m -4.3053,-7.2771 c 0,-0.5334 -0.1524,-0.9906 -0.4191,-1.3716 h 8.1153 v 1.4859 h -7.6962 z m -1.1811,2.0955 c 0.5715,-0.1905 0.9525,-0.6096 1.1049,-1.2954 h 7.7724 v 0.9144 c 0,0.1905 -0.0381,0.3048 -0.0381,0.381 z" />
            <path class="g" d="m 47.660249,45.727744 -2.0955,6.6675 h -7.8867 l 3.8895,-12.8778 h 31.8516 v 6.2103 z m -10.2108,16.6116 c -0.1905,-0.381 -0.3429,-0.762 -0.4191,-1.1049 h 36.3855 v 1.1049 z m 1.4097,2.0193 -0.381,-0.4572 c -0.1524,-0.1524 -0.2667,-0.3048 -0.381,-0.4953 h 35.3187 v 0.9525 z m 2.9337,1.9812 c -0.5715,-0.1905 -1.1049,-0.4572 -1.5621,-0.8001 h 33.1851 v 0.8001 z m -4.7244,-11.9634 0.5334,-1.7907 h 7.9248 l -0.5715,1.7907 z m 28.6512,0 v -1.7907 h 7.6962 v 1.7907 z m -21.1455,1.2573 v 0.762 h -7.6962 v -1.2954 l 0.1143,-0.381 h 7.8486 z m 21.1455,0.762 v -1.6764 h 7.6962 v 1.6764 z m -28.8417,1.9812 v -1.4859 h 7.6962 v 1.4859 z m 28.8417,0 v -1.4859 h 7.6962 v 1.4859 z m -21.0693,0.6858 c 0.1524,0.6858 0.4953,1.1049 1.0668,1.2954 h -8.8392 v -0.381 -0.9144 z m 21.0693,1.2954 v -1.2954 h 7.6962 v 1.2954 z m 7.6962,-8.4963 v 0.5334 h -7.6962 v -0.5334 z" />
        </g>
    </g>
</svg>