<svg id="ussg-logo" viewBox="0 0 410 129" xmlns="http://www.w3.org/2000/svg" xmlns:svg="http://www.w3.org/2000/svg">
    <g id="solarsystem" transform="scale(0.26458333)">
        <circle style="fill:#0e3759;stroke-width:1.42848289;stroke:#000000;stroke-opacity:1" cx="225" cy="225" r="225" />
        <circle style="fill:#185e98;stroke-width:1.42848289;stroke:#000000;stroke-opacity:1" cx="225" cy="225" r="165" />
        <circle style="mix-blend-mode:multiply;fill:#77aad4;stroke-width:1.42848289;stroke:#000000;stroke-opacity:1" cx="225" cy="225" r="105" />
        <circle class="moon" style="fill:#77aad4" cx="93.727646" cy="23.281439" r="7.5" />
    </g>
    <g id="planets">
        <path class="sunrays1" style="fill:#fb7a5b" d="m 225,167.5 c -4.142,0 -7.5,3.358 -7.5,7.5 v 22.01 l -11.005,-19.061 c -2.071,-3.588 -6.658,-4.816 -10.245,-2.745 -3.587,2.071 -4.816,6.658 -2.745,10.245 l 11.005,19.061 -19.061,-11.005 c -3.587,-2.072 -8.174,-0.843 -10.245,2.745 -2.071,3.587 -0.842,8.174 2.745,10.245 L 197.01,217.5 H 175 c -4.142,0 -7.5,3.358 -7.5,7.5 0,4.142 3.358,7.5 7.5,7.5 h 22.01 l -19.061,11.005 c -3.587,2.071 -4.816,6.658 -2.745,10.245 1.389,2.406 3.91,3.751 6.502,3.751 1.272,0 2.562,-0.324 3.743,-1.006 l 19.061,-11.005 -11.005,19.061 c -2.071,3.587 -0.842,8.174 2.745,10.245 1.181,0.682 2.471,1.006 3.743,1.006 2.592,0 5.113,-1.345 6.502,-3.751 l 25,-43.301 1.005,-3.75 v -50 c 0,-4.142 -3.358,-7.5 -7.5,-7.5 z" transform="scale(0.26458333)" />
        <path class="sunrays2" style="fill:#f7fb5b" d="m 282.5,225 c 0,-4.142 -3.358,-7.5 -7.5,-7.5 h -22.01 l 19.061,-11.005 c 3.587,-2.071 4.816,-6.658 2.745,-10.245 -2.071,-3.588 -6.658,-4.816 -10.245,-2.745 l -19.061,11.005 11.005,-19.061 c 2.071,-3.587 0.842,-8.174 -2.745,-10.245 -3.587,-2.072 -8.174,-0.842 -10.245,2.745 l -25,43.301 -1.005,3.75 v 50 c 0,4.142 3.358,7.5 7.5,7.5 4.142,0 7.5,-3.358 7.5,-7.5 v -22.01 l 11.005,19.061 c 1.389,2.406 3.91,3.751 6.502,3.751 1.272,0 2.562,-0.324 3.743,-1.006 3.587,-2.071 4.816,-6.658 2.745,-10.245 l -11.005,-19.061 19.061,11.005 c 1.181,0.682 2.471,1.006 3.743,1.006 2.592,0 5.113,-1.345 6.502,-3.751 2.071,-3.587 0.842,-8.174 -2.745,-10.245 L 252.99,232.5 H 275 c 4.142,0 7.5,-3.358 7.5,-7.5 z" transform="scale(0.26458333)" />
        <path class="sun1" style="fill:#fa9647" d="m 225,185 v 80 c 22.091,0 40,-17.909 40,-40 0,-22.091 -17.909,-40 -40,-40 z" transform="scale(0.26458333)" />
        <path class="sun2" style="fill:#f7fb5b" d="m 235,225 c 0,-22.091 -4.477,-40 -10,-40 -22.091,0 -40,17.909 -40,40 0,22.091 17.909,40 40,40 5.523,0 10,-17.909 10,-40 z" transform="scale(0.26458333)" />
        <path class="earth1" style="fill:#2927ff" d="m 65.194,35.194 -10,30 10,30 c 16.569,0 30,-13.432 30,-30 0,-16.568 -13.432,-30 -30,-30 z" transform="scale(0.26458333)" />
        <path class="earth2" style="fill:#43fe87" d="m 35.194,65.194 c 0,16.568 13.431,30 30,30 v -60 c -16.569,0 -30,13.431 -30,30 z" transform="scale(0.26458333)" />
        <path class="venus1" style="fill:#f3031a" d="m 47.157328,11.206895 -2.645833,6.614583 2.645833,6.614584 c 3.653102,0 6.614583,-2.961482 6.614583,-6.614584 0,-3.653102 -2.961481,-6.614583 -6.614583,-6.614583 z" />
        <path class="venus2" style="fill:#f7fb5b" d="m 40.542745,17.821478 c 0,3.653102 2.961481,6.614584 6.614583,6.614584 V 11.206895 c -3.653102,0 -6.614583,2.961481 -6.614583,6.614583 z" />
        <path class="mercury1" style="fill:#fe4382" d="m 225,305 -10,25 10,25 c 13.807,0 25,-11.193 25,-25 0,-13.807 -11.193,-25 -25,-25 z" transform="scale(0.26458333)" />
        <path class="mercury2" style="fill:#fd5f6e" d="m 200,330 c 0,13.807 11.193,25 25,25 v -50 c -13.807,0 -25,11.193 -25,25 z" transform="scale(0.26458333)" />
    </g>
    <g id="logotext" transform="translate(148.55044,-20.471774)">
        <g class="us">
            <path style="fill:#fff;" class="s" d="m -45.591007,75.770162 c 1.1176,0 2.1336,0.3048 2.9972,0.9144 0.8128,0.6096 1.524,1.3716 2.1336,2.286 h -44.3484 c -0.4064,-1.2192 -0.6096,-2.4892 -0.6096,-3.8608 v -4.3688 c 0,-1.016 0.254,-2.0828 0.762,-3.1496 0.508,-1.016 1.2192,-1.9812 2.0828,-2.8448 0.8128,-0.8636 1.778,-1.5748 2.8448,-2.1336 1.0668,-0.508 2.1336,-0.8128 3.2512,-0.8128 h 37.5412 v 8.2804 h -33.782 c -0.7112,0 -1.27,0.254 -1.7272,0.7112 -0.508,0.508 -0.7112,1.1684 -0.7112,2.032 v 0.2032 c 0,0.9144 0.2032,1.5748 0.7112,2.032 0.4572,0.508 1.016,0.7112 1.7272,0.7112 z m 5.2832,3.4544 c 0.4064,0.761999 0.7112,1.574799 0.9144,2.387599 h -43.9928 c -0.3048,-0.3556 -0.5588,-0.7112 -0.762,-1.1176 -0.2032,-0.4064 -0.4064,-0.8128 -0.5588,-1.269999 z m 1.0668,2.844799 c 0.1016,0.762 0.2032,1.524 0.3048,2.2352 h -11.5824 c -0.4064,-0.1524 -0.762,-0.254 -1.0668,-0.254 h -27.178 c -0.9144,0 -1.6764,-0.1524 -2.3876,-0.508 -0.7112,-0.3556 -1.3716,-0.8636 -1.8796,-1.4732 z m 0.0508,8.6868 c -0.1016,0.508 -0.3048,0.9652 -0.5588,1.4732 h -45.6692 v -1.4732 z m -1.4224,2.8956 c -0.2032,0.254 -0.3556,0.4572 -0.508,0.6604 -0.1524,0.2032 -0.3048,0.4064 -0.508,0.6096 h -43.7896 v -1.27 z m -2.8448,2.8448 c -0.7112,0.508 -1.3716,0.8636 -2.032,1.0668 h -39.9288 v -1.0668 z m -5.7404,-9.7028 c 0,-0.7112 -0.2032,-1.3208 -0.5588,-1.8288 h 10.8204 v 1.9812 h -10.2616 z m -1.5748,2.794 c 0.762,-0.254 1.27,-0.8128 1.4732,-1.7272 h 10.3632 v 1.2192 c 0,0.254 -0.0508,0.4064 -0.0508,0.508 z" />
            <path style="fill:#fff;" class="u" d="m -127.93778,61.800162 v 17.1704 h -10.2616 v -17.1704 z m 38.455595,0 v 17.1704 h -10.2616 v -17.1704 z m -47.955195,30.429199 c -0.254,-0.508 -0.4572,-1.016 -0.5588,-1.4732 h 48.259995 c -0.1016,0.508 -0.3048,0.9652 -0.5588,1.4732 z m 1.8796,2.6924 -0.508,-0.6096 c -0.2032,-0.2032 -0.3556,-0.4064 -0.508,-0.6604 h 45.415195 c -0.2032,0.254 -0.3556,0.4572 -0.508,0.6604 -0.1524,0.2032 -0.3048,0.4064 -0.508,0.6096 z m 3.9116,2.6416 c -0.762,-0.254 -1.4732,-0.6096 -2.0828,-1.0668 h 39.725595 c -0.7112,0.508 -1.3716,0.8636 -2.032,1.0668 z m 31.902395,-15.9512 v -2.387599 h 10.2616 v 2.387599 z m -38.455595,0 v -2.387599 h 10.2616 v 2.387599 z m 38.455595,2.6924 v -2.2352 h 10.2616 v 2.2352 z m -38.455595,0 v -2.2352 h 10.2616 v 2.2352 z m 38.455595,2.6416 v -1.9812 h 10.2616 v 1.9812 z m -38.455595,0 v -1.9812 h 10.2616 v 1.9812 z m 36.8808,2.6416 c 0.762,-0.254 1.27,-0.8128 1.473195,-1.7272 h 10.3632 v 1.2192 c 0,0.254 -0.0508,0.4064 -0.0508,0.508 z m -26.5176,-1.7272 c 0.2032,0.9144 0.6604,1.4732 1.4224,1.7272 h -11.7856 v -0.508 -1.2192 z" />
        </g>
        <g class="star">
            <path class="r" d="m 157.04916,57.413396 c 0,-0.762 -0.254,-1.3716 -0.6604,-1.8288 -0.4572,-0.4064 -0.9652,-0.6604 -1.524,-0.6604 h -21.3868 v 6.35 h -9.3472 v -13.8684 h 34.1376 c 0.9652,0 1.9304,0.254 2.9464,0.762 0.9652,0.508 1.8288,1.1176 2.5908,1.8796 0.762,0.8128 1.3716,1.6764 1.8796,2.6416 0.4572,0.9652 0.7112,1.9304 0.7112,2.8448 v 5.7404 h -9.906 c 0.3556,-0.4064 0.5588,-1.016 0.5588,-1.7272 z m 8.5852,6.9596 c -0.4572,0.8636 -0.9652,1.6256 -1.524,2.2352 h -39.9796 v -2.2352 z m 0.762,-2.8448 c -0.0508,0.4064 -0.1016,0.8128 -0.2032,1.2192 -0.1016,0.4064 -0.2032,0.8128 -0.3556,1.1684 h -41.7068 v -2.3876 h 9.3472 v 0.508 h 21.3868 c 0.508,0 0.9652,-0.1524 1.3716,-0.508 z m -2.9464,5.7404 c -0.508,0.508 -1.0668,0.9144 -1.6256,1.2192 -0.5588,0.3556 -1.1176,0.6096 -1.7272,0.762 h -35.9664 v -1.9812 z m -16.6624,4.6228 -1.6764,-1.7272 h 11.3284 l 1.6764,1.7272 z m 2.5908,2.6416 -1.4224,-1.4732 h 11.3284 l 1.4224,1.4732 z m -25.2476,-2.6416 v -1.7272 h 9.3472 v 1.7272 z m 27.8892,5.334 -1.2192,-1.27 h 11.3284 l 1.2192,1.27 z m -27.8892,-2.6924 v -1.4732 h 9.3472 v 1.4732 z m 30.5308,5.334 -1.0668,-1.0668 h 11.2776 l 1.0668,1.0668 z m -30.5308,-2.6416 v -1.27 h 9.3472 v 1.27 z m 0,2.6416 v -1.0668 h 9.3472 v 1.0668 z" />
            <path class="a" d="m 81.458777,47.405796 h 32.918403 l 4.1656,13.8684 h -9.6012 l -1.9304,-6.35 H 88.824777 l -1.9812,6.35 h -9.6012 z m -5.6896,21.844 v -1.9812 h 44.297603 v 1.9812 z m 0,2.6416 v -1.7272 h 44.297603 v 1.7272 z m 34.950403,2.54 H 85.116377 v 0.1016 h -9.3472 v -1.4732 h 44.297603 v 1.4732 h -9.3472 z m -34.239203,-10.5156 0.7112,-2.3876 h 9.6012 l -0.762,2.3876 z m 33.274003,0 -0.7112,-2.3876 h 9.5504 l 0.7112,2.3876 z m 10.3124,2.3876 v 0.3048 h -9.4488 l -0.7112,-2.2352 h 9.5504 z m -44.297603,0.3048 v -0.3048 l 0.5588,-1.9304 h 9.5504 l -0.6604,2.2352 z m 34.950403,10.6172 v -1.27 h 9.3472 v 1.27 z m -34.950403,0 v -1.27 h 9.3472 v 1.27 z m 0,2.6416 v -1.0668 h 9.3472 v 1.0668 z m 34.950403,0 v -1.0668 h 9.3472 v 1.0668 z" />
            <path class="t" d="m 47.626037,61.274196 v -6.35 h -17.4752 v -7.5184 h 44.2976 v 7.5184 h -17.4752 v 6.35 z m 0,2.6416 v -2.3876 h 9.3472 v 2.3876 z m 0,2.6924 v -2.2352 h 9.3472 v 2.2352 z m 0,2.6416 v -1.9812 h 9.3472 v 1.9812 z m 0,2.6416 v -1.7272 h 9.3472 v 1.7272 z m 0,2.6416 v -1.4732 h 9.3472 v 1.4732 z m 0,2.6924 v -1.27 h 9.3472 v 1.27 z m 0,2.6416 v -1.0668 h 9.3472 v 1.0668 z" />
            <path class="s" d="m 19.431993,58.073796 c 1.1176,0 2.1336,0.3048 2.9972,0.9144 0.8128,0.6096 1.524,1.3716 2.1336,2.286 h -44.348399 c -0.4064,-1.2192 -0.6096,-2.4892 -0.6096,-3.8608 v -4.3688 c 0,-1.016 0.254,-2.0828 0.762,-3.1496 0.508,-1.016 1.2192,-1.9812 2.0828,-2.8448 0.8128,-0.8636 1.778,-1.5748 2.8448,-2.1336 1.0668,-0.508 2.1336,-0.8128 3.2512,-0.8128 h 37.541199 v 8.2804 H -7.6952063 c -0.7111999,0 -1.2699999,0.254 -1.7271999,0.7112 -0.508,0.508 -0.7111998,1.1684 -0.7111998,2.032 v 0.2032 c 0,0.9144 0.2031998,1.5748 0.7111998,2.032 0.4572,0.508 1.016,0.7112 1.7271999,0.7112 z m 5.2832,3.4544 c 0.4064,0.762 0.7112,1.5748 0.9144,2.3876 h -43.992799 c -0.3048,-0.3556 -0.5588,-0.7112 -0.762,-1.1176 -0.2032,-0.4064 -0.4064,-0.8128 -0.5588,-1.27 z m 1.0668,2.8448 c 0.1016,0.762 0.2032,1.524 0.3048,2.2352 h -11.5824 c -0.4064,-0.1524 -0.762,-0.254 -1.0668,-0.254 h -27.177999 c -0.9144,0 -1.6764,-0.1524 -2.3876,-0.508 -0.7112,-0.3556 -1.3716,-0.8636 -1.8796,-1.4732 z m 0.0508,8.6868 c -0.1016,0.508 -0.3048,0.9652 -0.5588,1.4732 h -45.669199 v -1.4732 z m -1.4224,2.8956 c -0.2032,0.254 -0.3556,0.4572 -0.508,0.6604 -0.1524,0.2032 -0.3048,0.4064 -0.508,0.6096 h -43.789599 v -1.27 z m -2.8448,2.8448 c -0.7112,0.508 -1.3716,0.8636 -2.032,1.0668 h -39.928799 v -1.0668 z m -5.7404,-9.7028 c 0,-0.7112 -0.2032,-1.3208 -0.5588,-1.8288 h 10.8204 v 1.9812 h -10.2616 z m -1.5748,2.794 c 0.762,-0.254 1.27,-0.8128 1.4732,-1.7272 h 10.3632 v 1.2192 c 0,0.254 -0.0508,0.4064 -0.0508,0.508 z" />
        </g>
        <g class="gazers">
            <path class="s" d="m 255.24541,101.2136 c 0.6096,0 1.2192,0.1016 1.7272,0.3048 0.508,0.2032 1.016,0.508 1.4732,0.8636 h -39.26839 c -0.1016,-0.508 -0.1524,-1.1176 -0.1524,-1.778 v -3.9624 c 0,-0.9144 0.2032,-1.8796 0.7112,-2.8448 0.4572,-0.9652 1.0668,-1.8288 1.8288,-2.6416 0.762,-0.762 1.6256,-1.3716 2.6416,-1.8796 0.9652,-0.508 1.9304,-0.762 2.9464,-0.762 h 34.13759 v 7.5184 h -30.73399 c -0.6096,0 -1.1176,0.254 -1.524,0.6604 -0.4572,0.4572 -0.6604,1.0668 -0.6604,1.8288 v 0.2032 c 0,0.8128 0.2032,1.4224 0.6604,1.8288 0.4064,0.4572 0.9144,0.6604 1.524,0.6604 z m 3.5052,1.4224 c 0.6604,0.7112 1.2192,1.4732 1.6256,2.3876 h -40.43679 c -0.4064,-0.762 -0.6604,-1.5748 -0.762,-2.3876 z m 1.8288,2.8448 c 0.254,0.8128 0.4572,1.524 0.5588,2.2352 h -39.11599 c -0.762,-0.508 -1.3716,-1.27 -1.8288,-2.2352 z m 0.6096,8.6868 c -0.1016,0.6096 -0.2032,1.0668 -0.3556,1.4732 h -41.80839 v -1.4732 z m -1.1176,2.8956 c -0.1524,0.254 -0.3048,0.4572 -0.4572,0.6604 l -0.508,0.6096 h -40.08119 v -1.27 z m -2.6924,2.8448 c -0.6096,0.4572 -1.2192,0.8128 -1.9304,1.0668 h -36.42359 v -1.0668 z m 3.9116,-10.5664 v 1.016 h -9.4996 c -0.2032,-0.508 -0.4572,-0.8636 -0.8128,-1.1684 -0.3556,-0.3048 -0.762,-0.4572 -1.2192,-0.4572 h -24.68879 c -0.762,0 -1.3716,-0.1016 -1.8796,-0.3556 h 38.04919 c 0,0.2032 0.0508,0.3556 0.0508,0.508 z m -9.3472,2.0828 v -0.1524 h 9.3472 v 1.7272 h -9.8044 c 0.3048,-0.4572 0.4572,-0.9652 0.4572,-1.5748 z" />
            <path class="r" d="m 205.61378,98.5212 c 0,-0.762 -0.254,-1.3716 -0.6604,-1.8288 -0.4572,-0.4064 -0.9652,-0.6604 -1.524,-0.6604 h -21.3868 v 6.35 h -9.3472 V 88.5136 h 34.1376 c 0.9652,0 1.9304,0.254 2.9464,0.762 0.9652,0.508 1.8288,1.1176 2.5908,1.8796 0.762,0.8128 1.3716,1.6764 1.8796,2.6416 0.4572,0.9652 0.7112,1.9304 0.7112,2.8448 v 5.7404 h -9.906 c 0.3556,-0.4064 0.5588,-1.016 0.5588,-1.7272 z m 8.5852,6.9596 c -0.4572,0.8636 -0.9652,1.6256 -1.524,2.2352 h -39.9796 v -2.2352 z m 0.762,-2.8448 c -0.0508,0.4064 -0.1016,0.8128 -0.2032,1.2192 -0.1016,0.4064 -0.2032,0.8128 -0.3556,1.1684 h -41.7068 v -2.3876 h 9.3472 v 0.508 h 21.3868 c 0.508,0 0.9652,-0.1524 1.3716,-0.508 z m -2.9464,5.7404 c -0.508,0.508 -1.0668,0.9144 -1.6256,1.2192 -0.5588,0.3556 -1.1176,0.6096 -1.7272,0.762 h -35.9664 v -1.9812 z m -16.6624,4.6228 -1.6764,-1.7272 h 11.3284 l 1.6764,1.7272 z m 2.5908,2.6416 -1.4224,-1.4732 h 11.3284 l 1.4224,1.4732 z m -25.2476,-2.6416 v -1.7272 h 9.3472 v 1.7272 z m 27.8892,5.334 -1.2192,-1.27 h 11.3284 l 1.2192,1.27 z m -27.8892,-2.6924 v -1.4732 h 9.3472 v 1.4732 z m 30.5308,5.334 -1.0668,-1.0668 h 11.2776 l 1.0668,1.0668 z m -30.5308,-2.6416 v -1.27 h 9.3472 v 1.27 z m 0,2.6416 v -1.0668 h 9.3472 v 1.0668 z" />
            <path class="e" d="m 136.06855,96.032 v 5.1816 h 32.512 v 1.1684 h -41.8592 V 88.5136 h 41.91 v 7.5184 z m -9.3472,8.9916 v -2.3876 h 41.8592 v 2.3876 z m 0,2.6924 v -2.2352 h 41.8592 v 2.2352 z m 0.4572,7.9248 c -0.1016,-0.2032 -0.2032,-0.4572 -0.254,-0.7112 -0.0508,-0.2032 -0.1016,-0.4572 -0.1524,-0.762 h 41.8592 v 1.4732 z m 1.6764,2.6924 c -0.3556,-0.3556 -0.6604,-0.762 -0.9652,-1.27 h 40.7416 v 1.27 z m 3.7084,2.6416 c -0.7112,-0.2032 -1.3716,-0.5588 -1.9812,-1.0668 h 38.0492 v 1.0668 z m 3.5052,-12.2428 v 1.6256 h -9.3472 v -1.9812 h 41.8592 v 0.3556 z m 0,2.6924 c 0,0.6604 0.1524,1.1684 0.4572,1.5748 h -9.8044 v -1.7272 h 9.3472 z" />
            <path class="z" d="m 122.65732,96.032 -9.5504,6.35 h -15.0368 l 9.5504,-6.35 H 80.747321 v -7.5184 h 41.909999 z m -41.909999,19.6088 v -1.4732 h 41.909999 v 1.4732 z m 0,2.6924 v -1.27 h 41.909999 v 1.27 z m 0,2.6416 v -1.0668 h 41.909999 v 1.0668 z m 13.309599,-15.9512 3.6068,-2.3876 h 15.0368 l -3.6068,2.3876 z m -4.0132,2.6924 3.3528,-2.2352 h 15.0368 l -3.3528,2.2352 z m -3.9624,2.6416 2.9464,-1.9812 h 15.0368 l -2.9464,1.9812 z m -3.962399,2.6416 2.590799,-1.7272 h 15.0368 l -2.5908,1.7272 z" />
            <path class="a" d="m 38.075337,88.5136 h 32.918399 l 4.1656,13.8684 h -9.6012 l -1.9304,-6.35 H 45.441337 l -1.9812,6.35 h -9.6012 z m -5.6896,21.844 v -1.9812 h 44.297599 v 1.9812 z m 0,2.6416 v -1.7272 h 44.297599 v 1.7272 z m 34.950399,2.54 H 41.732937 v 0.1016 h -9.3472 v -1.4732 h 44.297599 v 1.4732 h -9.3472 z m -34.239199,-10.5156 0.7112,-2.3876 h 9.6012 l -0.762,2.3876 z m 33.273999,0 -0.7112,-2.3876 h 9.5504 l 0.7112,2.3876 z m 10.3124,2.3876 v 0.3048 h -9.4488 l -0.7112,-2.2352 h 9.5504 z m -44.297599,0.3048 v -0.3048 l 0.5588,-1.9304 h 9.5504 l -0.6604,2.2352 z m 34.950399,10.6172 v -1.27 h 9.3472 v 1.27 z m -34.950399,0 v -1.27 h 9.3472 v 1.27 z m 0,2.6416 v -1.0668 h 9.3472 v 1.0668 z m 34.950399,0 v -1.0668 h 9.3472 v 1.0668 z" />
            <path class="g" d="m -6.0190409,93.492 -2.7939999,8.89 H -19.328641 l 5.186,-17.1704 h 42.4688 v 8.2804 z m -13.6144001,22.1488 c -0.254,-0.508 -0.4572,-1.016 -0.5588,-1.4732 h 48.514 v 1.4732 z m 1.8796,2.6924 -0.508,-0.6096 c -0.2032,-0.2032 -0.3556,-0.4064 -0.508,-0.6604 h 47.0916 v 1.27 z m 3.9116,2.6416 c -0.762,-0.254 -1.4732,-0.6096 -2.0828,-1.0668 h 44.2468 v 1.0668 z m -6.2992,-15.9512 0.7112,-2.3876 h 10.5664002 l -0.762,2.3876 z m 38.2016,0 v -2.3876 h 10.2616 v 2.3876 z m -28.194,1.6764 v 1.016 h -10.2616 v -1.7272 l 0.1524,-0.508 h 10.4648002 z m 28.194,1.016 v -2.2352 h 10.2616 v 2.2352 z m -38.4556,2.6416 v -1.9812 h 10.2616 v 1.9812 z m 38.4556,0 v -1.9812 h 10.2616 v 1.9812 z m -28.0924,0.9144 c 0.2032002,0.9144 0.6604002,1.4732 1.4224001,1.7272 H -20.395441 v -0.508 -1.2192 z m 28.0924,1.7272 v -1.7272 h 10.2616 v 1.7272 z m 10.2616,-11.3284 v 0.7112 h -10.2616 v -0.7112 z" />
        </g>
    </g>
</svg>